<svg width="25" height="25" viewBox="0 0 25 25" fill="none" xmlns="http://www.w3.org/2000/svg">
<g clip-path="url(#clip0_29_133)">
<path d="M12.9336 17.3213C15.695 17.3213 17.9336 15.0827 17.9336 12.3213C17.9336 9.55987 15.695 7.32129 12.9336 7.32129C10.1722 7.32129 7.93359 9.55987 7.93359 12.3213C7.93359 15.0827 10.1722 17.3213 12.9336 17.3213Z" stroke="black" stroke-width="2" stroke-linecap="round" stroke-linejoin="round"/>
<path d="M12.9336 1.32129V3.32129" stroke="black" stroke-width="2" stroke-linecap="round" stroke-linejoin="round"/>
<path d="M12.9336 21.3213V23.3213" stroke="black" stroke-width="2" stroke-linecap="round" stroke-linejoin="round"/>
<path d="M5.15332 4.54126L6.57332 5.96126" stroke="black" stroke-width="2" stroke-linecap="round" stroke-linejoin="round"/>
<path d="M19.2939 18.6813L20.7139 20.1013" stroke="black" stroke-width="2" stroke-linecap="round" stroke-linejoin="round"/>
<path d="M1.93359 12.3213H3.93359" stroke="black" stroke-width="2" stroke-linecap="round" stroke-linejoin="round"/>
<path d="M21.9336 12.3213H23.9336" stroke="black" stroke-width="2" stroke-linecap="round" stroke-linejoin="round"/>
<path d="M5.15332 20.1013L6.57332 18.6813" stroke="black" stroke-width="2" stroke-linecap="round" stroke-linejoin="round"/>
<path d="M19.2939 5.96126L20.7139 4.54126" stroke="black" stroke-width="2" stroke-linecap="round" stroke-linejoin="round"/>
</g>
<defs>
<clipPath id="clip0_29_133">
<rect width="24" height="24" fill="white" transform="translate(0.933594 0.321289)"/>
</clipPath>
</defs>
</svg>
