<svg width="25" height="25" viewBox="0 0 25 25" fill="none" xmlns="http://www.w3.org/2000/svg">
<path d="M21.9335 13.1113C21.7762 14.8135 21.1374 16.4357 20.0917 17.7881C19.0461 19.1405 17.637 20.1671 16.0292 20.7478C14.4214 21.3286 12.6815 21.4394 11.013 21.0674C9.34451 20.6953 7.81649 19.8558 6.60772 18.6471C5.39895 17.4383 4.55943 15.9103 4.1874 14.2418C3.81537 12.5733 3.92621 10.8334 4.50696 9.22559C5.0877 7.6178 6.11433 6.20866 7.46671 5.16304C8.81909 4.11743 10.4413 3.47859 12.1435 3.32129C11.1469 4.66956 10.6673 6.33074 10.792 8.0027C10.9167 9.67467 11.6374 11.2463 12.8229 12.4319C14.0084 13.6174 15.5801 14.3381 17.2521 14.4628C18.924 14.5874 20.5852 14.1079 21.9335 13.1113Z" stroke="black" stroke-width="2" stroke-linecap="round" stroke-linejoin="round"/>
</svg>
